<svg style="margin-right: 12px;" xmlns="http://www.w3.org/2000/svg"
     width="24" height="24" viewBox="0 0 24 24" fill="none">
    <g clip-path="url(#clip0_107_5391)">
        <path
                d="M19 0H5C3.67441 0.00158786 2.40356 0.528882 1.46622 1.46622C0.528882 2.40356 0.00158786 3.67441 0 5L0 19C0.00158786 20.3256 0.528882 21.5964 1.46622 22.5338C2.40356 23.4711 3.67441 23.9984 5 24H19C20.3256 23.9984 21.5964 23.4711 22.5338 22.5338C23.4711 21.5964 23.9984 20.3256 24 19V5C23.9984 3.67441 23.4711 2.40356 22.5338 1.46622C21.5964 0.528882 20.3256 0.00158786 19 0ZM5 2H19C19.7956 2 20.5587 2.31607 21.1213 2.87868C21.6839 3.44129 22 4.20435 22 5V19C21.9983 19.4455 21.8957 19.8848 21.7 20.285L12.537 11.122C12.0727 10.6576 11.5214 10.2892 10.9147 10.0378C10.308 9.78644 9.65772 9.65707 9.001 9.65707C8.34428 9.65707 7.69399 9.78644 7.08728 10.0378C6.48056 10.2892 5.92931 10.6576 5.465 11.122L2 14.586V5C2 4.20435 2.31607 3.44129 2.87868 2.87868C3.44129 2.31607 4.20435 2 5 2ZM5 22C4.20435 22 3.44129 21.6839 2.87868 21.1213C2.31607 20.5587 2 19.7956 2 19V17.414L6.878 12.536C7.1566 12.2572 7.4874 12.0361 7.85151 11.8852C8.21561 11.7343 8.60587 11.6566 9 11.6566C9.39413 11.6566 9.78439 11.7343 10.1485 11.8852C10.5126 12.0361 10.8434 12.2572 11.122 12.536L20.285 21.7C19.8848 21.8957 19.4455 21.9983 19 22H5Z"
                fill="white" />
        <path d="M16 3.5V10.5M12.5 7H19.5" stroke="white" stroke-width="2"
              stroke-linecap="round" stroke-linejoin="round" />
    </g>
    <defs>
        <clipPath id="clip0_107_5391">
            <rect width="24" height="24" fill="white" />
        </clipPath>
    </defs>
</svg>