<svg xmlns="http://www.w3.org/2000/svg" width="18" height="18" viewBox="0 0 18 18" fill="none">
    <g clip-path="url(#clip0_93_2482)">
        <path d="M16.65 1.62224C16.2284 1.26969 15.7343 1.01429 15.2029 0.874168C14.6714 0.734049 14.1156 0.712651 13.575 0.811494L10.7085 1.33199C10.0467 1.45353 9.44497 1.79401 9 2.29874C8.55387 1.79314 7.95042 1.45258 7.287 1.33199L4.425 0.811494C3.88437 0.712565 3.3286 0.733682 2.79703 0.873351C2.26547 1.01302 1.7711 1.26783 1.34892 1.61973C0.92675 1.97164 0.58709 2.41205 0.353987 2.90977C0.120884 3.4075 3.66093e-05 3.95039 0 4.49999L0 12.5947C4.30919e-05 13.4728 0.308233 14.3231 0.87085 14.9973C1.43347 15.6714 2.21483 16.1268 3.07875 16.284L7.79325 17.1412C8.59122 17.2862 9.40878 17.2862 10.2068 17.1412L14.925 16.284C15.7882 16.126 16.5687 15.6703 17.1306 14.9962C17.6925 14.3221 18.0001 13.4723 18 12.5947V4.49999C18.0003 3.95058 17.8795 3.40784 17.6462 2.91044C17.4129 2.41303 17.0727 1.9732 16.65 1.62224ZM8.25 15.696C8.187 15.687 8.124 15.6765 8.061 15.6652L3.34725 14.8087C2.82882 14.7144 2.35995 14.4411 2.02237 14.0365C1.68479 13.6319 1.49992 13.1217 1.5 12.5947V4.49999C1.5 3.90326 1.73705 3.33096 2.15901 2.909C2.58097 2.48705 3.15326 2.24999 3.75 2.24999C3.88582 2.25032 4.02134 2.26262 4.155 2.28674L7.02 2.81174C7.36471 2.87482 7.67646 3.0566 7.90113 3.32553C8.12581 3.59446 8.24924 3.93356 8.25 4.28399V15.696ZM16.5 12.5947C16.5001 13.1217 16.3152 13.6319 15.9776 14.0365C15.6401 14.4411 15.1712 14.7144 14.6528 14.8087L9.939 15.6652C9.876 15.6765 9.813 15.687 9.75 15.696V4.28399C9.74995 3.9327 9.87319 3.59254 10.0982 3.3228C10.3233 3.05307 10.6359 2.87088 10.9815 2.80799L13.8473 2.28299C14.1718 2.22395 14.5053 2.23698 14.8243 2.32118C15.1432 2.40537 15.4398 2.55866 15.6929 2.7702C15.946 2.98173 16.1495 3.24633 16.289 3.54526C16.4284 3.84419 16.5005 4.17013 16.5 4.49999V12.5947Z" fill="#848484"/>
    </g>
    <defs>
        <clipPath id="clip0_93_2482">
            <rect width="18" height="18" fill="white"/>
        </clipPath>
    </defs>
</svg>