<svg xmlns="http://www.w3.org/2000/svg" width="24" height="24" viewBox="0 0 24 24" fill="none" id="upicon">
    <path d="M18.7085 8.24408C18.6156 8.13955 18.505 8.05658 18.3831 7.99996C18.2613 7.94334 18.1306 7.91418 17.9986 7.91418C17.8666 7.91418 17.7359 7.94334 17.6141 7.99996C17.4922 8.05658 17.3816 8.13955 17.2887 8.24408L12.7092 13.352C12.6162 13.4565 12.5056 13.5395 12.3838 13.5961C12.262 13.6528 12.1313 13.6819 11.9993 13.6819C11.8673 13.6819 11.7366 13.6528 11.6147 13.5961C11.4929 13.5395 11.3823 13.4565 11.2893 13.352L6.70987 8.24408C6.61691 8.13955 6.50633 8.05658 6.38448 7.99996C6.26263 7.94334 6.13194 7.91418 5.99995 7.91418C5.86795 7.91418 5.73726 7.94334 5.61541 7.99996C5.49357 8.05658 5.38298 8.13955 5.29003 8.24408C5.1038 8.45304 4.99927 8.73571 4.99927 9.03034C4.99927 9.32498 5.1038 9.60765 5.29003 9.81661L9.87951 14.9357C10.4419 15.5623 11.2044 15.9142 11.9993 15.9142C12.7942 15.9142 13.5566 15.5623 14.119 14.9357L18.7085 9.81661C18.8947 9.60765 18.9993 9.32498 18.9993 9.03034C18.9993 8.73571 18.8947 8.45304 18.7085 8.24408Z" fill="#848484"/>
</svg>