<svg xmlns="http://www.w3.org/2000/svg" width="24" height="24" viewBox="0 0 24 24" fill="none">
    <path d="M5.29149 15.7559C5.38445 15.8604 5.49503 15.9434 5.61688 16C5.73872 16.0566 5.86942 16.0858 6.00141 16.0858C6.13341 16.0858 6.2641 16.0566 6.38595 16C6.50779 15.9434 6.61838 15.8604 6.71133 15.7559L11.2908 10.648C11.3838 10.5434 11.4944 10.4605 11.6162 10.4039C11.738 10.3472 11.8687 10.3181 12.0007 10.3181C12.1327 10.3181 12.2634 10.3472 12.3853 10.4039C12.5071 10.4605 12.6177 10.5434 12.7107 10.648L17.2901 15.7559C17.3831 15.8604 17.4937 15.9434 17.6155 16C17.7374 16.0566 17.8681 16.0858 18.0001 16.0858C18.1321 16.0858 18.2627 16.0566 18.3846 16C18.5064 15.9434 18.617 15.8604 18.71 15.7559C18.8962 15.5469 19.0007 15.2643 19.0007 14.9696C19.0007 14.675 18.8962 14.3923 18.71 14.1834L14.1205 9.06429C13.5581 8.43773 12.7956 8.0858 12.0007 8.0858C11.2058 8.0858 10.4434 8.43773 9.88097 9.06429L5.29149 14.1834C5.10526 14.3923 5.00073 14.675 5.00073 14.9696C5.00073 15.2643 5.10526 15.5469 5.29149 15.7559Z" fill="white"/>
</svg>