<svg id="closeBtn" xmlns="http://www.w3.org/2000/svg" width="24" height="24" viewBox="0 0 24 24" fill="none">
    <g clip-path="url(#clip0_93_2355)">
        <path d="M11.125 5.70125L12 7.28202L12.8749 5.70125C13.335 4.86987 14.0064 4.17464 14.8212 3.68576C15.6276 3.20192 16.5462 2.93715 17.4861 2.91741C19.0062 2.99121 20.4368 3.65961 21.469 4.77907C22.5078 5.90579 23.0585 7.39785 23.0007 8.92929L23 8.94813V8.96699C23 10.9114 21.9628 13.0721 20.3095 15.2438C18.6743 17.3917 16.5363 19.4208 14.5573 21.0808L14.5566 21.0814C13.8406 21.6831 12.9353 22.013 12 22.013C11.0647 22.013 10.1593 21.6831 9.4433 21.0814L9.44262 21.0808C7.46364 19.4208 5.32559 17.3917 3.69038 15.2438C2.03714 13.0721 0.999958 10.9114 0.999958 8.96699V8.94813L0.999247 8.92929C0.94146 7.39785 1.49213 5.90579 2.53094 4.77907C3.56308 3.65961 4.99374 2.99121 6.51382 2.91741C7.45368 2.93715 8.3723 3.20192 9.1787 3.68576C9.99351 4.17464 10.6649 4.86987 11.125 5.70125Z" fill="#8338FF" stroke="black" stroke-width="2"/>
    </g>
    <defs>
        <clipPath id="clip0_93_2355)">
            <rect width="24" height="24" fill="white"/>
        </clipPath>
    </defs>
</svg>